<svg width="26" height="6" viewBox="0 0 26 6" fill="none" xmlns="http://www.w3.org/2000/svg">
<g clip-path="url(#clip0_120_1263)">
<path d="M1.84979 1.1637L1.39061 2.09417L0.364258 2.24252L1.10702 2.96712L0.931424 3.98944L1.84979 3.50704L2.76815 3.98944L2.59256 2.96712L3.33532 2.24353L2.30897 2.09417L1.84979 1.1637Z" fill="#141A33"/>
</g>
<g clip-path="url(#clip1_120_1263)">
<path d="M5.72113 1.1637L5.26194 2.09417L4.2356 2.24252L4.97836 2.96712L4.80276 3.98944L5.72113 3.50704L6.63949 3.98944L6.46389 2.96712L7.20666 2.24353L6.18031 2.09417L5.72113 1.1637Z" fill="#141A33"/>
</g>
<g clip-path="url(#clip2_120_1263)">
<path d="M9.60028 1.1637L9.1411 2.09417L8.11475 2.24252L8.85751 2.96712L8.68191 3.98944L9.60028 3.50704L10.5186 3.98944L10.343 2.96712L11.0858 2.24353L10.0595 2.09417L9.60028 1.1637Z" fill="#141A33"/>
</g>
<g clip-path="url(#clip3_120_1263)">
<path d="M13.4758 1.1637L13.0166 2.09417L11.9902 2.24252L12.733 2.96712L12.5574 3.98944L13.4758 3.50704L14.3941 3.98944L14.2185 2.96712L14.9613 2.24353L13.9349 2.09417L13.4758 1.1637Z" fill="#141A33"/>
</g>
<g clip-path="url(#clip4_120_1263)">
<path d="M17.351 1.1637L16.8918 2.09417L15.8655 2.24252L16.6082 2.96712L16.4326 3.98944L17.351 3.50704L18.2694 3.98944L18.0938 2.96712L18.8365 2.24353L17.8102 2.09417L17.351 1.1637Z" fill="#141A33"/>
</g>
<path d="M21.9515 2.48913C22.4666 2.48913 22.7366 2.83727 22.7366 3.29552C22.7366 3.82127 22.3387 4.12322 21.8911 4.12322C21.4577 4.12322 21.1487 3.89942 21.0989 3.43051L21.0954 3.39499H21.3156L21.3227 3.43051C21.3725 3.73601 21.5572 3.9456 21.8911 3.9456C22.2215 3.9456 22.4915 3.72536 22.4915 3.30973C22.4915 2.91542 22.2677 2.66675 21.9195 2.66675C21.6673 2.66675 21.479 2.77332 21.3512 3.03975H21.1416L21.3334 1.62591H22.6691V1.81063H21.511L21.3689 2.78398L21.5146 2.61702C21.6425 2.53176 21.781 2.48913 21.9515 2.48913ZM23.2003 3.78575C23.2962 3.78575 23.3673 3.85679 23.3673 3.95271C23.3673 4.05217 23.2962 4.12322 23.2003 4.12322C23.1009 4.12322 23.0298 4.05217 23.0298 3.95271C23.0298 3.85679 23.1009 3.78575 23.2003 3.78575ZM24.5834 1.57263C25.2228 1.57263 25.4395 2.12324 25.4395 2.84792C25.4395 3.5726 25.2228 4.12322 24.5834 4.12322C23.9404 4.12322 23.7237 3.5726 23.7237 2.84792C23.7237 2.11969 23.9404 1.57263 24.5834 1.57263ZM24.5834 3.9456C25.031 3.9456 25.1944 3.50156 25.1944 2.84792C25.1944 2.19429 25.031 1.75024 24.5834 1.75024C24.1358 1.75024 23.9688 2.19074 23.9688 2.84792C23.9688 3.50156 24.1358 3.9456 24.5834 3.9456Z" fill="#141A33"/>
<defs>
<clipPath id="clip0_120_1263">
<rect width="3.22942" height="3.22942" fill="white" transform="translate(0.235352 0.961548)"/>
</clipPath>
<clipPath id="clip1_120_1263">
<rect width="3.22942" height="3.22942" fill="white" transform="translate(4.1106 0.961548)"/>
</clipPath>
<clipPath id="clip2_120_1263">
<rect width="3.22942" height="3.22942" fill="white" transform="translate(7.98584 0.961548)"/>
</clipPath>
<clipPath id="clip3_120_1263">
<rect width="3.22942" height="3.22942" fill="white" transform="translate(11.8613 0.961548)"/>
</clipPath>
<clipPath id="clip4_120_1263">
<rect width="3.22942" height="3.22942" fill="white" transform="translate(15.7366 0.961548)"/>
</clipPath>
</defs>
</svg>
