<svg width="20" height="5" viewBox="0 0 20 5" fill="none" xmlns="http://www.w3.org/2000/svg">
<g clip-path="url(#clip0_120_1243)">
<path d="M2.34735 1.1637L1.88817 2.09417L0.861816 2.24252L1.60458 2.96712L1.42898 3.98944L2.34735 3.50704L3.26571 3.98944L3.09011 2.96712L3.83288 2.24353L2.80653 2.09417L2.34735 1.1637Z" fill="#141A33"/>
</g>
<g clip-path="url(#clip1_120_1243)">
<path d="M6.22064 1.1637L5.76146 2.09417L4.73511 2.24252L5.47787 2.96712L5.30227 3.98944L6.22064 3.50704L7.139 3.98944L6.96341 2.96712L7.70617 2.24353L6.67982 2.09417L6.22064 1.1637Z" fill="#141A33"/>
</g>
<g clip-path="url(#clip2_120_1243)">
<path d="M10.0956 1.16345L9.63646 2.09393L8.61011 2.24228L9.35287 2.96688L9.17727 3.98919L10.0956 3.5068L11.014 3.98919L10.8384 2.96688L11.5812 2.24329L10.5548 2.09393L10.0956 1.16345Z" fill="#141A33"/>
</g>
<g clip-path="url(#clip3_120_1243)">
<path d="M13.9675 1.16345L13.5083 2.09393L12.4819 2.24228L13.2247 2.96688L13.0491 3.98919L13.9675 3.5068L14.8858 3.98919L14.7102 2.96688L15.453 2.24329L14.4266 2.09393L13.9675 1.16345Z" fill="#141A33"/>
</g>
<g clip-path="url(#clip4_120_1243)">
<path d="M17.8466 1.61985L18.1252 2.18298L18.1716 2.2839L18.2725 2.29904L18.8942 2.38886L18.4521 2.82281L18.3764 2.89648L18.3946 2.9974L18.5006 3.61603L17.9445 3.32438L17.8466 3.283L17.7528 3.33245L17.1967 3.62007L17.2976 3.00144L17.3158 2.90052L17.2411 2.82281L16.795 2.38381L17.4167 2.29399L17.5176 2.27885L17.564 2.17794L17.8466 1.61985ZM17.8466 1.1637L17.3874 2.09417L16.3611 2.24252L17.1038 2.96712L16.9283 3.98944L17.8466 3.50704L18.765 3.98944L18.5894 2.96712L19.3321 2.24353L18.3058 2.09417L17.8466 1.1637Z" fill="#141A33"/>
</g>
<defs>
<clipPath id="clip0_120_1243">
<rect width="3.22942" height="3.22942" fill="white" transform="translate(0.729004 0.961548)"/>
</clipPath>
<clipPath id="clip1_120_1243">
<rect width="3.22942" height="3.22942" fill="white" transform="translate(4.60425 0.961548)"/>
</clipPath>
<clipPath id="clip2_120_1243">
<rect width="3.22942" height="3.22942" fill="white" transform="translate(8.47949 0.961548)"/>
</clipPath>
<clipPath id="clip3_120_1243">
<rect width="3.22942" height="3.22942" fill="white" transform="translate(12.355 0.961548)"/>
</clipPath>
<clipPath id="clip4_120_1243">
<rect width="3.22942" height="3.22942" fill="white" transform="translate(16.2302 0.961548)"/>
</clipPath>
</defs>
</svg>
