<svg width="19" height="19" viewBox="0 0 19 19" fill="none" xmlns="http://www.w3.org/2000/svg">
<rect width="19" height="19" rx="9.5" fill="#9D105B" fill-opacity="0.15"/>
<path d="M6.53125 4.75H12.4687M6.53125 14.25H12.4687M7.3559 14.25V11.7717L8.29799 11.0638C8.51366 10.9018 8.69215 10.6726 8.81608 10.3985C8.94 10.1245 9.00514 9.81493 9.00514 9.5C9.00514 9.18507 8.94 8.87551 8.81608 8.60146C8.69215 8.32742 8.51366 8.09823 8.29799 7.93622L7.3559 7.22826V4.75M11.6441 4.75V7.22826L10.702 7.93622C10.4864 8.09831 10.308 8.32752 10.1841 8.60156C10.0603 8.87559 9.99517 9.18512 9.99517 9.5C9.99517 9.81488 10.0603 10.1244 10.1841 10.3984C10.308 10.6725 10.4864 10.9017 10.702 11.0638L11.6441 11.7717V14.25" stroke="#9D105B" stroke-width="1.1875"/>
</svg>
