<svg width="85" height="27" viewBox="0 0 85 27" fill="none" xmlns="http://www.w3.org/2000/svg">
<path d="M9.60636 26.8386C14.9018 27.4076 20.4809 23.6775 20.946 17.3105C19.4982 23.6775 12.5311 22.3561 9.60636 26.8386Z" fill="#0C374B"/>
<path d="M14.0953 21.3085C9.59702 20.0784 5.35504 19.9524 4.97395 24.1137C6.65476 22.7474 8.70253 22.159 10.9883 22.0719C8.53112 22.6401 6.59984 23.6732 5.02637 25.0225C5.81602 26.9586 10.7312 25.042 14.0953 21.3085Z" fill="#0C374B"/>
<mask id="mask0_44_157" style="mask-type:luminance" maskUnits="userSpaceOnUse" x="0" y="0" width="12" height="26">
<path d="M0.5 0.104492H11.7898V25.1404H0.5V0.104492Z" fill="white"/>
</mask>
<g mask="url(#mask0_44_157)">
<path d="M2.81265 25.013C-2.28804 13.8524 18.2371 9.44598 9.53092 0.106445C10.6992 7.95125 -5.06305 14.9794 2.81265 25.013Z" fill="#0C374B"/>
</g>
<path d="M14.2293 4.21405C14.0412 3.96972 13.8415 3.73638 13.6294 3.51318C13.1035 11.6793 0.579729 13.9467 4.42813 25.0803C4.51384 20.9478 5.86764 17.9989 12.4395 19.9197C14.6229 20.6223 15.9941 20.465 15.2328 18.0522C15.2103 17.9803 15.212 17.9084 15.2378 17.8374C15.2636 17.7664 15.3077 17.7106 15.3717 17.6709C15.7703 17.4206 15.955 17.0808 15.2303 16.363C16.2388 16.281 16.401 15.8025 15.7828 14.9587C15.7637 14.9325 15.7512 14.9029 15.7462 14.8708C15.7404 14.8387 15.7429 14.8074 15.752 14.7761C15.762 14.7448 15.7778 14.7178 15.8003 14.6949C15.8219 14.6713 15.8485 14.6543 15.8785 14.6434C16.2779 14.503 16.7821 14.1987 17.0209 13.8901C17.0825 13.8098 17.1183 13.7193 17.1291 13.6178C17.1391 13.5164 17.1225 13.42 17.0784 13.3287C16.748 12.6321 15.5448 11.9405 15.4841 11.0308C15.4142 9.30612 15.7662 7.76404 15.2436 6.11628C18.012 11.2819 20.3892 19.6543 14.6487 22.6505C25.3751 18.8951 17.2115 7.79025 14.2293 4.21405Z" fill="#9D82B6"/>
<path d="M25.6983 20V8.15539H27.898V18.1387H34.091V20H25.6983ZM39.3661 20.1184C38.599 20.1184 37.9222 19.9774 37.3356 19.6954C36.749 19.4021 36.2921 18.9622 35.965 18.3756C35.6379 17.7777 35.4743 17.0276 35.4743 16.1251V10.9643H37.5894V15.8375C37.5894 16.6497 37.7699 17.2588 38.1309 17.6649C38.5031 18.0597 39.0277 18.2572 39.7045 18.2572C40.2008 18.2572 40.6295 18.1556 40.9905 17.9526C41.3627 17.7495 41.6504 17.4449 41.8534 17.0388C42.0678 16.6327 42.1749 16.1308 42.1749 15.5329V10.9643H44.2901V20H42.2765V17.5634L42.6318 18.3079C42.3272 18.8945 41.8816 19.3457 41.2951 19.6616C40.7085 19.9662 40.0655 20.1184 39.3661 20.1184ZM58.4641 10.8627C59.186 10.8627 59.8234 11.0037 60.3761 11.2858C60.9401 11.5678 61.3801 12.0021 61.6959 12.5887C62.0118 13.164 62.1697 13.9085 62.1697 14.8222V20H60.0546V15.0929C60.0546 14.292 59.8798 13.6942 59.5301 13.2993C59.1804 12.9045 58.6784 12.7071 58.0241 12.7071C57.5616 12.7071 57.1499 12.8086 56.7889 13.0117C56.4392 13.2147 56.1628 13.5137 55.9598 13.9085C55.768 14.3033 55.6721 14.8053 55.6721 15.4144V20H53.557V15.0929C53.557 14.292 53.3822 13.6942 53.0325 13.2993C52.6828 12.9045 52.1808 12.7071 51.5265 12.7071C51.064 12.7071 50.6523 12.8086 50.2913 13.0117C49.9416 13.2147 49.6652 13.5137 49.4622 13.9085C49.2704 14.3033 49.1745 14.8053 49.1745 15.4144V20H47.0594V10.9643H49.073V13.367L48.7176 12.6563C49.0222 12.0698 49.4622 11.6242 50.0375 11.3196C50.624 11.015 51.2896 10.8627 52.0341 10.8627C52.8802 10.8627 53.6134 11.0714 54.2338 11.4888C54.8655 11.9062 55.2829 12.5379 55.486 13.3839L54.6569 13.0963C54.9502 12.4195 55.4352 11.878 56.1121 11.4719C56.7889 11.0658 57.5729 10.8627 58.4641 10.8627ZM69.1362 20.1184C68.1323 20.1184 67.2524 19.921 66.4966 19.5262C65.7521 19.1201 65.1711 18.5674 64.7537 17.868C64.3476 17.1686 64.1446 16.3733 64.1446 15.4821C64.1446 14.5797 64.342 13.7844 64.7368 13.0963C65.1429 12.3969 65.6957 11.8498 66.395 11.455C67.1057 11.0601 67.9123 10.8627 68.8147 10.8627C69.6946 10.8627 70.4786 11.0545 71.1667 11.438C71.8548 11.8216 72.3963 12.363 72.7911 13.0624C73.186 13.7618 73.3834 14.5853 73.3834 15.5329C73.3834 15.6231 73.3777 15.7247 73.3664 15.8375C73.3664 15.9503 73.3608 16.0574 73.3495 16.159H65.8197V14.7545H72.2327L71.4036 15.1945C71.4149 14.6756 71.3077 14.2187 71.0821 13.8239C70.8565 13.4291 70.5463 13.1188 70.1515 12.8932C69.7679 12.6676 69.3224 12.5548 68.8147 12.5548C68.2958 12.5548 67.839 12.6676 67.4441 12.8932C67.0606 13.1188 66.756 13.4347 66.5304 13.8408C66.3161 14.2356 66.2089 14.7038 66.2089 15.2452V15.5837C66.2089 16.1251 66.333 16.6045 66.5812 17.0219C66.8293 17.4393 67.179 17.7608 67.6303 17.9864C68.0815 18.212 68.6004 18.3248 69.187 18.3248C69.6946 18.3248 70.1515 18.2459 70.5576 18.0879C70.9637 17.93 71.3247 17.6818 71.6405 17.3434L72.7742 18.6463C72.3681 19.1201 71.8548 19.4867 71.2344 19.7462C70.6253 19.9944 69.9259 20.1184 69.1362 20.1184ZM67.3426 9.72903L69.6269 7.41088H72.1143L69.1701 9.72903H67.3426ZM80.7342 20V18.1725L80.6157 17.7834V14.5853C80.6157 13.9649 80.4296 13.4855 80.0573 13.147C79.6851 12.7974 79.121 12.6225 78.3652 12.6225C77.8576 12.6225 77.3556 12.7015 76.8593 12.8594C76.3742 13.0173 75.9625 13.2373 75.6241 13.5193L74.7949 11.9795C75.28 11.6073 75.8553 11.3309 76.5209 11.1504C77.1977 10.9586 77.8971 10.8627 78.619 10.8627C79.9276 10.8627 80.9372 11.1786 81.6479 11.8103C82.3698 12.4307 82.7308 13.3952 82.7308 14.7038V20H80.7342ZM77.8914 20.1184C77.2146 20.1184 76.6224 20.0056 76.1148 19.78C75.6071 19.5431 75.2123 19.2216 74.9303 18.8155C74.6596 18.3982 74.5242 17.93 74.5242 17.4111C74.5242 16.9035 74.6426 16.4466 74.8795 16.0405C75.1277 15.6344 75.5282 15.3129 76.0809 15.076C76.6337 14.8391 77.3669 14.7207 78.2806 14.7207H80.9034V16.1251H78.4329C77.711 16.1251 77.2259 16.2436 76.9777 16.4805C76.7295 16.7061 76.6055 16.9881 76.6055 17.3265C76.6055 17.71 76.7578 18.0146 77.0623 18.2402C77.3669 18.4658 77.7899 18.5786 78.3314 18.5786C78.8503 18.5786 79.3128 18.4602 79.7189 18.2233C80.1363 17.9864 80.4352 17.6367 80.6157 17.1742L80.971 18.4433C80.768 18.9735 80.4014 19.3852 79.8712 19.6785C79.3523 19.9718 78.6924 20.1184 77.8914 20.1184Z" fill="#09070A"/>
</svg>
