<svg width="25" height="25" viewBox="0 0 25 25" fill="none" xmlns="http://www.w3.org/2000/svg">
<path d="M3.92473 3.0752C3.86894 3.01942 3.80272 2.97517 3.72983 2.94498C3.65694 2.91479 3.57882 2.89925 3.49993 2.89925C3.42104 2.89925 3.34292 2.91479 3.27003 2.94498C3.19714 2.97517 3.13091 3.01942 3.07513 3.0752C3.01934 3.13099 2.97509 3.19722 2.9449 3.2701C2.91471 3.34299 2.89917 3.42111 2.89917 3.5C2.89917 3.5789 2.91471 3.65702 2.9449 3.7299C2.97509 3.80279 3.01934 3.86902 3.07513 3.9248L6.36793 7.2176L3.33433 10.7276C3.05409 11.0539 2.89999 11.4699 2.89993 11.9V15.5C2.89993 16.2957 3.216 17.0587 3.77861 17.6213C4.34122 18.1839 5.10428 18.5 5.89993 18.5H8.29993C9.09558 18.5 9.85864 18.1839 10.4212 17.6213C10.9839 17.0587 11.2999 16.2957 11.2999 15.5V13.7H12.8515L13.6999 14.5484V15.5C13.6999 16.2957 14.016 17.0587 14.5786 17.6213C15.1412 18.1839 15.9043 18.5 16.6999 18.5H17.6515L21.0751 21.9248C21.1878 22.0375 21.3406 22.1008 21.4999 22.1008C21.6593 22.1008 21.8121 22.0375 21.9247 21.9248C22.0374 21.8121 22.1007 21.6593 22.1007 21.5C22.1007 21.3407 22.0374 21.1879 21.9247 21.0752L3.92473 3.0752ZM9.25153 10.1H5.46313L7.21873 8.0684L9.25153 10.1ZM10.0999 11.9V15.5C10.0999 15.9774 9.91029 16.4352 9.57272 16.7728C9.23515 17.1104 8.77732 17.3 8.29993 17.3H5.89993C5.42254 17.3 4.9647 17.1104 4.62714 16.7728C4.28957 16.4352 4.09993 15.9774 4.09993 15.5V11.9C4.09993 11.7409 4.16314 11.5883 4.27566 11.4757C4.38819 11.3632 4.5408 11.3 4.69993 11.3H9.49993C9.65906 11.3 9.81167 11.3632 9.92419 11.4757C10.0367 11.5883 10.0999 11.7409 10.0999 11.9ZM14.8999 12.3548L13.8139 11.2688C13.9425 10.9255 14.1728 10.6296 14.4741 10.4207C14.7754 10.2118 15.1333 10.0999 15.4999 10.1H19.5283L16.7839 6.9164C16.6713 6.7858 16.5319 6.68101 16.3751 6.60915C16.2184 6.53729 16.048 6.50007 15.8755 6.5H14.8999C14.7408 6.5 14.5882 6.43679 14.4757 6.32427C14.3631 6.21175 14.2999 6.05913 14.2999 5.9C14.2999 5.74087 14.3631 5.58826 14.4757 5.47574C14.5882 5.36322 14.7408 5.3 14.8999 5.3H15.8755C16.2206 5.29996 16.5617 5.37433 16.8754 5.51804C17.1891 5.66176 17.4682 5.87145 17.6935 6.1328L21.5383 10.5944C21.8839 10.922 22.0999 11.3864 22.0999 11.9V15.5C22.0999 16.5992 21.5095 17.5592 20.6275 18.0824L19.7311 17.186C20.0745 17.0574 20.3704 16.8271 20.5792 16.5258C20.7881 16.2245 20.9 15.8666 20.8999 15.5V11.9C20.8998 11.7553 20.8474 11.6155 20.7523 11.5064L20.7451 11.5112L20.6803 11.4356C20.573 11.3478 20.4386 11.2999 20.2999 11.3H15.4999C15.3408 11.3 15.1882 11.3632 15.0757 11.4757C14.9631 11.5883 14.8999 11.7409 14.8999 11.9V12.3548ZM9.04753 6.5024L8.08273 5.5376C8.4073 5.38133 8.76289 5.30012 9.12313 5.3H10.0999C10.2591 5.3 10.4117 5.36322 10.5242 5.47574C10.6367 5.58826 10.6999 5.74087 10.6999 5.9C10.6999 6.05913 10.6367 6.21175 10.5242 6.32427C10.4117 6.43679 10.2591 6.5 10.0999 6.5H9.12313L9.04753 6.5024Z" fill="black"/>
</svg>
