<svg width="29" height="39" viewBox="0 0 29 39" fill="none" xmlns="http://www.w3.org/2000/svg">
<path d="M12.9161 38.4192C20.427 39.2262 28.3402 33.9356 29 24.9049C26.9464 33.9356 17.0646 32.0614 12.9161 38.4192Z" fill="#9D82B6"/>
<path d="M19.2831 30.5746C12.9029 28.8298 6.88624 28.6511 6.3457 34.5533C8.72972 32.6155 11.6342 31.7809 14.8762 31.6574C11.3911 32.4632 8.65182 33.9286 6.42006 35.8424C7.54007 38.5884 14.5115 35.87 19.2831 30.5746Z" fill="#9D82B6"/>
<mask id="mask0_107_1203" style="mask-type:luminance" maskUnits="userSpaceOnUse" x="0" y="0" width="17" height="37">
<path d="M0 0.5H16.013V36.0101H0V0.5Z" fill="white"/>
</mask>
<g mask="url(#mask0_107_1203)">
<path d="M3.28019 35.8291C-3.95446 19.9993 25.1577 13.7493 12.8092 0.502441C14.4662 11.6293 -7.89045 21.5977 3.28019 35.8291Z" fill="#9D82B6"/>
</g>
<path d="M19.4732 6.32905C19.2064 5.9825 18.9232 5.65153 18.6222 5.33496C17.8764 16.9175 0.113085 20.1335 5.57153 35.925C5.6931 30.0636 7.61329 25.881 16.9345 28.6055C20.0314 29.6019 21.9764 29.3789 20.8965 25.9566C20.8646 25.8546 20.867 25.7527 20.9036 25.652C20.9402 25.5513 21.0027 25.4721 21.0936 25.4158C21.6589 25.0608 21.9209 24.5788 20.893 23.5607C22.3234 23.4444 22.5535 22.7657 21.6766 21.5689C21.6495 21.5317 21.6318 21.4898 21.6247 21.4442C21.6164 21.3986 21.62 21.3543 21.6329 21.3099C21.6471 21.2655 21.6695 21.2272 21.7014 21.1948C21.7321 21.1612 21.7698 21.1372 21.8123 21.1216C22.3788 20.9226 23.094 20.4909 23.4328 20.0532C23.5201 19.9393 23.5708 19.811 23.5862 19.6671C23.6003 19.5232 23.5767 19.3865 23.5142 19.257C23.0457 18.2689 21.3391 17.288 21.2529 15.9977C21.1538 13.5515 21.653 11.3642 20.9118 9.02711C24.8384 16.3539 28.2102 28.2289 20.068 32.4787C35.282 27.1521 23.703 11.4014 19.4732 6.32905Z" fill="white"/>
</svg>
