<svg width="140" height="58" viewBox="0 0 140 58" fill="none" xmlns="http://www.w3.org/2000/svg">
<path d="M23.147 47.9192C30.6578 48.7262 38.5711 43.4356 39.2308 34.4049C37.1773 43.4356 27.2954 41.5614 23.147 47.9192Z" fill="#F0B100"/>
<path d="M29.5138 40.0746C23.1336 38.3298 17.117 38.1511 16.5764 44.0533C18.9604 42.1155 21.8649 41.2809 25.1069 41.1574C21.6218 41.9632 18.8825 43.4286 16.6508 45.3424C17.7708 48.0884 24.7423 45.37 29.5138 40.0746Z" fill="#F0B100"/>
<mask id="mask0_646_873" style="mask-type:luminance" maskUnits="userSpaceOnUse" x="10" y="10" width="17" height="36">
<path d="M10.2307 10H26.2437V45.5101H10.2307V10Z" fill="white"/>
</mask>
<g mask="url(#mask0_646_873)">
<path d="M13.5109 45.3291C6.27625 29.4993 35.3884 23.2493 23.0399 10.0024C24.6969 21.1293 2.34027 31.0977 13.5109 45.3291Z" fill="#F0B100"/>
</g>
<path d="M29.7039 15.829C29.4372 15.4825 29.1539 15.1515 28.853 14.835C28.1071 26.4175 10.3438 29.6335 15.8022 45.425C15.9238 39.5636 17.844 35.381 27.1653 38.1055C30.2621 39.102 32.2071 38.8789 31.1272 35.4566C31.0953 35.3546 31.0977 35.2527 31.1343 35.152C31.1709 35.0513 31.2334 34.9721 31.3243 34.9158C31.8896 34.5608 32.1516 34.0788 31.1237 33.0607C32.5541 32.9444 32.7842 32.2657 31.9073 31.0689C31.8802 31.0317 31.8625 30.9898 31.8554 30.9442C31.8471 30.8986 31.8507 30.8543 31.8637 30.8099C31.8778 30.7655 31.9002 30.7272 31.9321 30.6948C31.9628 30.6612 32.0006 30.6372 32.0431 30.6216C32.6095 30.4226 33.3248 29.9909 33.6635 29.5532C33.7508 29.4393 33.8016 29.311 33.8169 29.1671C33.8311 29.0232 33.8075 28.8865 33.7449 28.757C33.2764 27.7689 31.5698 26.788 31.4836 25.4977C31.3845 23.0515 31.8837 20.8642 31.1426 18.5271C35.0691 25.8539 38.4409 37.7289 30.2987 41.9787C45.5127 36.6521 33.9337 20.9014 29.7039 15.829Z" fill="white"/>
<path d="M45.9711 37.5V20.7H49.0911V34.86H57.8751V37.5H45.9711ZM65.3571 37.668C64.2691 37.668 63.3091 37.468 62.4771 37.068C61.6451 36.652 60.9971 36.028 60.5331 35.196C60.0691 34.348 59.8371 33.284 59.8371 32.004V24.684H62.8371V31.596C62.8371 32.748 63.0931 33.612 63.6051 34.188C64.1331 34.748 64.8771 35.028 65.8371 35.028C66.5411 35.028 67.1491 34.884 67.6611 34.596C68.1891 34.308 68.5971 33.876 68.8851 33.3C69.1891 32.724 69.3411 32.012 69.3411 31.164V24.684H72.3411V37.5H69.4851V34.044L69.9891 35.1C69.5571 35.932 68.9251 36.572 68.0931 37.02C67.2611 37.452 66.3491 37.668 65.3571 37.668ZM92.445 24.54C93.469 24.54 94.373 24.74 95.157 25.14C95.957 25.54 96.581 26.156 97.029 26.988C97.477 27.804 97.701 28.86 97.701 30.156V37.5H94.701V30.54C94.701 29.404 94.453 28.556 93.957 27.996C93.461 27.436 92.749 27.156 91.821 27.156C91.165 27.156 90.581 27.3 90.069 27.588C89.573 27.876 89.181 28.3 88.893 28.86C88.621 29.42 88.485 30.132 88.485 30.996V37.5H85.485V30.54C85.485 29.404 85.237 28.556 84.741 27.996C84.245 27.436 83.533 27.156 82.605 27.156C81.949 27.156 81.365 27.3 80.853 27.588C80.357 27.876 79.965 28.3 79.677 28.86C79.405 29.42 79.269 30.132 79.269 30.996V37.5H76.269V24.684H79.125V28.092L78.621 27.084C79.053 26.252 79.677 25.62 80.493 25.188C81.325 24.756 82.269 24.54 83.325 24.54C84.525 24.54 85.565 24.836 86.445 25.428C87.341 26.02 87.933 26.916 88.221 28.116L87.045 27.708C87.461 26.748 88.149 25.98 89.109 25.404C90.069 24.828 91.181 24.54 92.445 24.54ZM107.582 37.668C106.158 37.668 104.91 37.388 103.838 36.828C102.782 36.252 101.958 35.468 101.366 34.476C100.79 33.484 100.502 32.356 100.502 31.092C100.502 29.812 100.782 28.684 101.342 27.708C101.918 26.716 102.702 25.94 103.694 25.38C104.702 24.82 105.846 24.54 107.126 24.54C108.374 24.54 109.486 24.812 110.462 25.356C111.438 25.9 112.206 26.668 112.766 27.66C113.326 28.652 113.606 29.82 113.606 31.164C113.606 31.292 113.598 31.436 113.582 31.596C113.582 31.756 113.574 31.908 113.558 32.052H102.878V30.06H111.974L110.798 30.684C110.814 29.948 110.662 29.3 110.342 28.74C110.022 28.18 109.582 27.74 109.022 27.42C108.478 27.1 107.846 26.94 107.126 26.94C106.39 26.94 105.742 27.1 105.182 27.42C104.638 27.74 104.206 28.188 103.886 28.764C103.582 29.324 103.43 29.988 103.43 30.756V31.236C103.43 32.004 103.606 32.684 103.958 33.276C104.31 33.868 104.806 34.324 105.446 34.644C106.086 34.964 106.822 35.124 107.654 35.124C108.374 35.124 109.022 35.012 109.598 34.788C110.174 34.564 110.686 34.212 111.134 33.732L112.742 35.58C112.166 36.252 111.438 36.772 110.558 37.14C109.694 37.492 108.702 37.668 107.582 37.668ZM105.038 22.932L108.278 19.644H111.806L107.63 22.932H105.038ZM124.032 37.5V34.908L123.864 34.356V29.82C123.864 28.94 123.6 28.26 123.072 27.78C122.544 27.284 121.744 27.036 120.672 27.036C119.952 27.036 119.24 27.148 118.536 27.372C117.848 27.596 117.264 27.908 116.784 28.308L115.608 26.124C116.296 25.596 117.112 25.204 118.056 24.948C119.016 24.676 120.008 24.54 121.032 24.54C122.888 24.54 124.32 24.988 125.328 25.884C126.352 26.764 126.864 28.132 126.864 29.988V37.5H124.032ZM120 37.668C119.04 37.668 118.2 37.508 117.48 37.188C116.76 36.852 116.2 36.396 115.8 35.82C115.416 35.228 115.224 34.564 115.224 33.828C115.224 33.108 115.392 32.46 115.728 31.884C116.08 31.308 116.648 30.852 117.432 30.516C118.216 30.18 119.256 30.012 120.552 30.012H124.272V32.004H120.768C119.744 32.004 119.056 32.172 118.704 32.508C118.352 32.828 118.176 33.228 118.176 33.708C118.176 34.252 118.392 34.684 118.824 35.004C119.256 35.324 119.856 35.484 120.624 35.484C121.36 35.484 122.016 35.316 122.592 34.98C123.184 34.644 123.608 34.148 123.864 33.492L124.368 35.292C124.08 36.044 123.56 36.628 122.808 37.044C122.072 37.46 121.136 37.668 120 37.668Z" fill="white"/>
</svg>
