<svg width="21" height="27" viewBox="0 0 21 27" fill="none" xmlns="http://www.w3.org/2000/svg">
<path d="M9.60636 26.8386C14.9018 27.4076 20.4809 23.6775 20.946 17.3105C19.4982 23.6775 12.5311 22.3561 9.60636 26.8386Z" fill="#0C374B"/>
<path d="M14.0953 21.3085C9.59702 20.0784 5.35504 19.9524 4.97395 24.1137C6.65476 22.7474 8.70253 22.159 10.9883 22.0719C8.53112 22.6401 6.59984 23.6732 5.02637 25.0225C5.81602 26.9586 10.7312 25.042 14.0953 21.3085Z" fill="#0C374B"/>
<mask id="mask0_44_158" style="mask-type:luminance" maskUnits="userSpaceOnUse" x="0" y="0" width="12" height="26">
<path d="M0.5 0.104492H11.7898V25.1404H0.5V0.104492Z" fill="white"/>
</mask>
<g mask="url(#mask0_44_158)">
<path d="M2.81265 25.013C-2.28804 13.8524 18.2371 9.44598 9.53092 0.106445C10.6992 7.95125 -5.06305 14.9794 2.81265 25.013Z" fill="#0C374B"/>
</g>
<path d="M14.2293 4.21405C14.0412 3.96972 13.8415 3.73638 13.6294 3.51318C13.1035 11.6793 0.579729 13.9467 4.42813 25.0803C4.51384 20.9478 5.86764 17.9989 12.4395 19.9197C14.6229 20.6223 15.9941 20.465 15.2328 18.0522C15.2103 17.9803 15.212 17.9084 15.2378 17.8374C15.2636 17.7664 15.3077 17.7106 15.3717 17.6709C15.7703 17.4206 15.955 17.0808 15.2303 16.363C16.2388 16.281 16.401 15.8025 15.7828 14.9587C15.7637 14.9325 15.7512 14.9029 15.7462 14.8708C15.7404 14.8387 15.7429 14.8074 15.752 14.7761C15.762 14.7448 15.7778 14.7178 15.8003 14.6949C15.8219 14.6713 15.8485 14.6543 15.8785 14.6434C16.2779 14.503 16.7821 14.1987 17.0209 13.8901C17.0825 13.8098 17.1183 13.7193 17.1291 13.6178C17.1391 13.5164 17.1225 13.42 17.0784 13.3287C16.748 12.6321 15.5448 11.9405 15.4841 11.0308C15.4142 9.30612 15.7662 7.76404 15.2436 6.11628C18.012 11.2819 20.3892 19.6543 14.6487 22.6505C25.3751 18.8951 17.2115 7.79025 14.2293 4.21405Z" fill="#9D82B6"/>
</svg>
