<svg width="25" height="25" viewBox="0 0 25 25" fill="none" xmlns="http://www.w3.org/2000/svg">
<g clip-path="url(#clip0_107_1317)">
<path d="M2.4551 12.868H9.3151C9.57501 12.868 9.82428 12.9712 10.0081 13.155C10.1918 13.3388 10.2951 13.5881 10.2951 13.848V22.668C10.2951 22.938 10.0751 23.158 9.8051 23.158H1.9651C1.83514 23.158 1.71051 23.1064 1.61862 23.0145C1.52672 22.9226 1.4751 22.7979 1.4751 22.668V13.848C1.4751 13.5881 1.57835 13.3388 1.76213 13.155C1.94592 12.9712 2.19519 12.868 2.4551 12.868ZM15.1951 11.398H23.0351C23.0351 11.398 23.5251 11.398 23.5251 11.888V22.668C23.5251 22.668 23.5251 23.158 23.0351 23.158H15.1951C15.1951 23.158 14.7051 23.158 14.7051 22.668V11.888C14.7051 11.888 14.7051 11.398 15.1951 11.398Z" stroke="#1A151D" stroke-width="1.5" stroke-linecap="round" stroke-linejoin="round"/>
<path d="M2.94507 12.868V2.57799C2.94507 2.44149 2.98308 2.30769 3.05484 2.19158C3.1266 2.07546 3.22928 1.98163 3.35137 1.92058C3.47345 1.85954 3.61013 1.8337 3.74608 1.84596C3.88202 1.85822 4.01187 1.90809 4.12107 1.98999L8.23707 5.07699C8.60707 5.35399 8.82507 5.78999 8.82507 6.25299V12.868M4.41507 20.218H7.35507M14.7051 17.278H23.5251M14.7051 20.218H23.5251" stroke="#1A151D" stroke-width="1.5" stroke-linecap="round" stroke-linejoin="round"/>
</g>
<defs>
<clipPath id="clip0_107_1317">
<rect width="24" height="24" fill="white" transform="translate(0.5 0.5)"/>
</clipPath>
</defs>
</svg>
