<svg width="19" height="19" viewBox="0 0 19 19" fill="none" xmlns="http://www.w3.org/2000/svg">
<rect width="19" height="19" rx="9.5" fill="#CFC31F" fill-opacity="0.15"/>
<path d="M9.5 4.83328L9.94275 4.45353C9.88799 4.38969 9.82007 4.33845 9.74365 4.30332C9.66722 4.26819 9.58411 4.25 9.5 4.25C9.41589 4.25 9.33278 4.26819 9.25635 4.30332C9.17993 4.33845 9.11201 4.38969 9.05725 4.45353L9.5 4.83328ZM9.5 4.83328L9.05667 4.45411V4.4547L9.05375 4.45703L9.04617 4.46636L8.92075 4.61861C8.41644 5.2512 7.95516 5.91692 7.54 6.61128C6.79742 7.86078 6 9.57753 6 11.2499H7.16667C7.16667 9.90245 7.82758 8.41145 8.54333 7.20745C8.92991 6.561 9.35922 5.94109 9.82842 5.35186L9.94275 5.21303L9.5 4.83328ZM13 11.2499C13 9.57753 12.2026 7.86078 11.46 6.61128C11.0448 5.91692 10.5836 5.2512 10.0792 4.61861L9.95383 4.46636L9.94625 4.45703L9.94392 4.4547L9.94275 4.45353L9.5 4.83328L9.05725 5.21303L9.05842 5.2142L9.08467 5.2457C9.1045 5.26903 9.13347 5.30442 9.17158 5.35186C9.64078 5.94109 10.0701 6.561 10.4567 7.20745C11.1718 8.41145 11.8333 9.90245 11.8333 11.2499H13ZM11.8333 11.2499C11.8333 11.8688 11.5875 12.4623 11.1499 12.8999C10.7123 13.3374 10.1188 13.5833 9.5 13.5833V14.7499C10.4283 14.7499 11.3185 14.3812 11.9749 13.7248C12.6313 13.0684 13 12.1782 13 11.2499H11.8333ZM9.5 13.5833C8.88116 13.5833 8.28767 13.3374 7.85008 12.8999C7.4125 12.4623 7.16667 11.8688 7.16667 11.2499H6C6 12.1782 6.36875 13.0684 7.02513 13.7248C7.6815 14.3812 8.57174 14.7499 9.5 14.7499V13.5833Z" fill="#CFC31F"/>
</svg>
