<svg width="32" height="32" viewBox="0 0 32 32" fill="none" xmlns="http://www.w3.org/2000/svg">
<rect width="32" height="32" rx="16" fill="#4E1571" fill-opacity="0.15"/>
<path d="M26.2103 16L24.177 13.675L24.4603 10.6L21.452 9.91667L19.877 7.25L17.0436 8.46667L14.2103 7.25L12.6353 9.90833L9.62695 10.5833L9.91029 13.6667L7.87695 16L9.91029 18.325L9.62695 21.4083L12.6353 22.0917L14.2103 24.75L17.0436 23.525L19.877 24.7417L21.452 22.0833L24.4603 21.4L24.177 18.325L26.2103 16ZM15.452 19.9333L12.2853 16.7583L13.5186 15.525L15.452 17.4667L20.327 12.575L21.5603 13.8083L15.452 19.9333Z" fill="#4E1571"/>
</svg>
