<svg width="19" height="19" viewBox="0 0 19 19" fill="none" xmlns="http://www.w3.org/2000/svg">
<rect width="19" height="19" rx="9.5" fill="#BF3AB4" fill-opacity="0.15"/>
<path d="M9.5 3.5C8.51381 3.5 7.71429 4.3395 7.71429 5.375C7.71429 5.8015 7.85414 6.18495 8.08257 6.5H6.64286L4.5 11.75H14.5L12.3571 6.5H10.9174C11.1459 6.18495 11.2857 5.8015 11.2857 5.375C11.2857 4.3395 10.4862 3.5 9.5 3.5ZM9.5 4.25C10.0918 4.25 10.5714 4.75365 10.5714 5.375C10.5714 5.99635 10.0918 6.5 9.5 6.5C8.90824 6.5 8.42857 5.99633 8.42857 5.375C8.42857 4.75367 8.90824 4.25 9.5 4.25ZM9.39957 12.5C9.03836 12.5267 8.70029 12.6965 8.45374 12.9749C8.20718 13.2534 8.07053 13.6198 8.07143 14C8.07143 14.3978 8.22194 14.7794 8.48985 15.0607C8.75776 15.342 9.12112 15.5 9.5 15.5C9.87888 15.5 10.2422 15.342 10.5102 15.0607C10.7781 14.7794 10.9286 14.3978 10.9286 14C10.9291 13.7938 10.8891 13.5898 10.8111 13.4005C10.7331 13.2113 10.6188 13.041 10.4753 12.9002C10.3318 12.7595 10.1622 12.6513 9.97715 12.5824C9.79207 12.5136 9.59545 12.4855 9.39957 12.5Z" fill="#BF3AB4"/>
</svg>
